<?xml version="1.0" standalone="no"?>
<!DOCTYPE svg PUBLIC "-//W3C//DTD SVG 20010904//EN"
 "http://www.w3.org/TR/2001/REC-SVG-20010904/DTD/svg10.dtd">
<svg version="1.0" xmlns="http://www.w3.org/2000/svg"
 width="700.000000pt" height="700.000000pt" viewBox="0 0 700.000000 700.000000"
 preserveAspectRatio="xMidYMid meet">
<metadata>
Created by potrace 1.14, written by Peter Selinger 2001-2017
</metadata>
<g transform="translate(0.000000,700.000000) scale(0.100000,-0.100000)"
fill="#000000" stroke="none">
<path d="M3280 6996 c-3 -2 -32 -7 -65 -10 -182 -17 -453 -88 -640 -168 -681
-289 -1184 -855 -1390 -1563 -14 -48 -27 -99 -30 -113 -2 -14 -9 -48 -14 -76
-16 -81 -21 -108 -27 -156 -3 -25 -7 -54 -9 -65 -2 -11 -4 -23 -4 -26 -1 -3
-62 -7 -136 -7 -147 -2 -187 -12 -239 -60 -62 -58 -78 -132 -57 -262 6 -36 13
-83 16 -105 5 -36 21 -142 30 -205 3 -14 7 -43 10 -65 3 -22 8 -51 10 -65 8
-43 42 -271 51 -339 2 -19 6 -46 9 -60 2 -14 7 -44 10 -66 3 -22 13 -82 21
-133 8 -51 23 -156 35 -235 11 -78 24 -167 29 -197 5 -30 20 -136 35 -235 14
-99 28 -189 30 -200 10 -64 15 -94 20 -127 7 -54 14 -100 31 -206 15 -101 32
-212 40 -277 3 -22 14 -96 25 -165 25 -163 28 -178 34 -225 4 -22 8 -51 10
-65 6 -37 25 -170 31 -210 2 -19 6 -46 9 -60 3 -14 7 -43 10 -65 6 -46 29
-199 50 -330 8 -49 17 -110 20 -135 34 -254 65 -346 156 -465 90 -118 231
-208 374 -238 105 -23 3368 -24 3463 -2 200 47 357 168 445 343 45 90 62 155
92 362 8 58 17 116 20 130 2 14 11 76 20 138 9 62 18 121 20 131 2 10 6 42 10
71 4 29 9 62 11 74 2 11 6 38 9 61 3 22 8 51 10 65 2 14 7 45 10 70 3 25 8 52
10 60 2 8 6 38 10 65 3 28 8 57 10 65 2 8 6 38 10 65 8 67 14 109 25 175 5 30
12 75 15 100 3 25 8 52 10 60 2 8 6 38 10 65 3 28 10 75 15 105 10 60 14 86
45 300 2 14 11 72 19 130 9 58 30 197 47 310 16 113 37 248 45 300 8 52 17
106 19 120 2 14 7 45 11 70 4 25 8 56 9 70 4 34 34 232 45 300 5 30 12 71 14
90 7 46 62 419 70 475 2 11 6 38 10 60 3 22 8 58 12 80 15 93 1 154 -46 208
-59 66 -99 79 -258 79 -148 1 -137 -6 -146 83 -15 147 -60 341 -116 500 -124
350 -323 662 -585 919 -351 344 -828 587 -1290 657 -44 6 -91 14 -105 16 -34
6 -505 15 -510 9z m391 -440 c86 -8 165 -20 264 -42 39 -9 77 -17 85 -19 47
-10 217 -73 288 -106 46 -22 86 -39 88 -39 10 0 217 -129 269 -168 73 -55 188
-154 234 -202 59 -62 115 -125 141 -159 14 -18 34 -45 46 -59 97 -124 217
-354 279 -537 43 -127 98 -384 86 -403 -8 -14 -3906 -11 -3905 3 1 6 5 34 8
63 4 30 11 75 17 100 6 26 12 55 14 64 51 245 205 559 382 778 341 420 851
689 1378 726 50 3 91 7 92 8 4 3 164 -2 234 -8z m2193 -2187 c3 -3 1 -32 -4
-65 -5 -32 -11 -77 -15 -99 -3 -22 -7 -51 -10 -65 -2 -14 -6 -43 -9 -65 -4
-22 -8 -51 -11 -65 -2 -14 -7 -45 -10 -70 -3 -25 -7 -56 -10 -70 -4 -22 -23
-151 -40 -265 -3 -22 -13 -85 -21 -140 -9 -55 -17 -113 -20 -130 -2 -16 -6
-48 -9 -70 -7 -43 -11 -67 -20 -130 -3 -23 -8 -52 -10 -65 -3 -14 -7 -45 -11
-70 -3 -25 -9 -70 -14 -100 -13 -75 -18 -107 -24 -160 -3 -25 -8 -56 -11 -70
-3 -14 -7 -43 -10 -65 -3 -22 -7 -49 -9 -60 -2 -11 -7 -42 -11 -70 -8 -62 -35
-243 -60 -405 -2 -14 -11 -74 -20 -135 -9 -60 -18 -121 -21 -135 -2 -14 -7
-43 -10 -65 -2 -22 -11 -80 -19 -130 -8 -49 -17 -110 -20 -135 -3 -25 -10 -70
-15 -100 -9 -54 -19 -124 -25 -165 -1 -11 -5 -40 -9 -65 -9 -52 -12 -78 -21
-140 -3 -25 -12 -83 -20 -130 -7 -47 -16 -105 -19 -130 -23 -180 -52 -237
-143 -281 l-47 -23 -1636 1 -1635 0 -47 21 c-56 26 -102 79 -117 136 -10 38
-34 186 -76 471 -9 61 -18 121 -20 135 -3 14 -13 86 -24 160 -11 74 -23 151
-26 170 -24 159 -37 250 -50 340 -8 58 -17 116 -20 130 -3 14 -12 75 -20 137
-9 62 -18 122 -20 135 -3 12 -7 40 -10 63 -3 22 -13 82 -21 133 -8 52 -19 126
-24 165 -6 40 -12 83 -15 97 -6 40 -14 96 -35 240 -11 74 -22 146 -24 160 -3
14 -12 75 -21 136 -8 60 -17 121 -20 135 -2 13 -11 74 -20 134 -8 61 -20 135
-25 165 -5 30 -12 75 -15 100 -6 43 -8 60 -19 125 -3 17 -8 50 -11 75 -6 43
-24 165 -46 299 -6 41 -7 66 -1 70 13 7 4719 8 4726 0z"/>
</g>
</svg>
